<?xml version="1.0" encoding="UTF-8"?><svg id="a" xmlns="http://www.w3.org/2000/svg" viewBox="0 0 1536 333"><defs><style>.b{fill:#f3f5f5;}.c{fill:#f9fbfb;}.d{fill:#010101;}.e{fill:#050505;}.f{fill:#ebeded;}.g{fill:#fafcfc;}.h{fill:#969797;}.i{fill:#b4b5b5;}.j{fill:#333;}.k{fill:#a7a8a8;}.l{fill:#b0b2b2;}.m{fill:#121212;}.n{fill:#1e1e1e;}.o{fill:#0c0c0c;}.p{fill:#0b0b0b;}.q{fill:#090909;}.r{fill:#080808;}.s{fill:#070707;}.t{fill:#181919;}.u{fill:#878888;}.v{fill:#595a5a;}.w{fill:#5d5e5e;}</style></defs><path class="g" d="M143.08,332.87c-46.49,0-92.99-.04-139.48,.08-2.98,0-3.6-.6-3.59-3.58,.15-25.81,.09-51.63,.09-77.44,2.21-1.67,4.07-.27,5.99,.68,5.96,2.95,11.51,6.63,17.33,9.84,5.84,3.21,6.27,3,6.27-3.59,0-38.28,0-76.55,0-114.83,0-12.32,.08-24.63-.04-36.94-.04-4.2,1.16-7.09,5.06-9.36,15.96-9.27,31.99-18.43,47.98-27.64,25.65-14.77,51.22-29.68,76.94-44.34,3.03-1.73,5.96-3.62,9.11-5.14,1.16-.56,2.64-1,2.64-2.66,0-1.61-1.37-2.07-2.56-2.71-6.03-3.2-11.83-6.81-17.62-10.42-1.63-1.01-4.33-1.67-3.12-4.71C609.05,.13,1070.01,.14,1530.98,0c4.44,0,5.02,1.18,5.02,5.2-.13,84.91-.1,169.82-.1,254.73-2.78,1.14-2.91-1.22-3.56-2.76-5.4-12.87-9.51-26.21-14.51-39.23-6.91-17.99-13.26-36.18-19.97-54.25-5.66-15.24-11.4-30.47-16.68-45.85-.32-.94-.57-1.94-1.09-2.78-.6-.97-1.18-2.21-2.51-2.12-1.19,.09-1.27,1.38-1.6,2.27-4.88,13.24-9.31,26.65-14.22,39.89-1.24,3.33-1.1,7.25,.34,10.77,4.21,10.31,7.3,21,10.91,31.51,3.51,10.2,7.3,20.31,10.51,30.62,3.36,10.78,7.77,21.2,10.87,32.06,1.6,5.58,2.77,6.49,8.84,6.51,8.83,.03,17.66-.01,26.49,.02,2.13,0,4.38-.34,6.17,1.33,0,20.65-.05,41.3,.07,61.95,.01,2.5-.56,3.48-3.07,3.01-.48-.09-1-.01-1.5-.01H148.08c-1.27-3.28,1.87-3.52,3.4-4.38,11.44-6.46,22.79-13.06,34.16-19.65,30.2-17.51,60.28-35.25,90.9-51.99,9.04-4.94,12.4-10.2,11.4-20.03-.84-8.24-.13-16.64-.2-24.96-.03-3.16-.97-4.31-4.2-2.39-22.14,13.18-44.59,25.81-66.88,38.73-3.29,1.91-4.92,4.63-6.33,7.93-4.05,9.5-9.73,17.77-18.59,23.54-3.8,2.47-7.97,3.52-12.35,3.21-8.51-.61-13.2-7.52-12.47-17.78,1.16-16.39,9.01-29.01,22.18-38.34,5.33-3.78,11.38-5.66,17.8-2.01,.58,.33,1.35,.51,1.69,1.03,3.06,4.69,6.27,2.91,10.04,.72,15.52-9.01,31.05-18,46.67-26.83,6.37-3.6,12.58-7.45,18.99-10.97,2.29-1.26,3.44-2.95,3.45-5.57,.05-10.49,.01-20.98,.02-31.47,0-3.34-.93-4.18-4.1-2.28-21.95,13.16-44.37,25.53-66.5,38.39-2.33,1.36-4.68,2.64-5.62,5.38-2.86,8.33-7.72,15.41-13.62,21.85-.34,.42-.72,.78-1.16,1.09-4.89,3.47-9.68,6.4-16.26,6.47-7.74,.09-11.69-5.09-12.9-10.71-1.96-9.04,.23-17.61,4.33-25.54,3.58-6.92,7.92-13.49,14.52-18.13,9.77-6.88,16.45-8.89,24.22-.58,2.18,2.33,5.04,1.13,7.35-.32,15.47-9.72,31.54-18.39,47.31-27.6,6.3-3.68,12.51-7.55,18.98-10.93,2.39-1.25,3.39-2.96,3.4-5.55,.04-11.32,.09-22.64-.03-33.96-.05-4.44-1.1-5.02-5.09-2.65-16.55,9.83-33.3,19.29-49.94,28.96-17.51,10.17-35.06,20.27-52.59,30.39-10.62,6.13-21.06,12.6-32,18.16-3.09,1.57-3.69,3.73-3.63,6.78,.12,6.32,.04,12.65,.04,18.98,0,45.28,0,90.56-.02,135.84,0,2.44,.55,5.05-1.34,7.16Z"/><path d="M.1,246.94v-2c1.41-1.73,.98-3.81,.98-5.77,.02-48.45,.02-96.9,0-145.35,0-1.96,.43-4.03-.98-5.77v-2c5.3-6.04,12.64-9.15,19.39-12.95,15.08-8.48,29.95-17.31,44.96-25.92,24.68-14.15,49.41-28.2,73.97-42.55,3.92-2.29,7.8-2.48,11.77,.01,5.78,3.63,11.8,6.84,17.66,10.33,3.69,2.2,3.6,3.91-.03,5.95-28.98,16.31-57.67,33.14-86.47,49.77-15.84,9.15-31.61,18.41-47.6,27.28-3.33,1.85-4.32,4.11-4.3,7.57,.05,9.32,0,18.64,.02,27.96,.12,41.94-.28,83.88,.2,125.82,.04,3.56-1.66,5.03-4.47,3.56-7.65-4.04-15.19-8.28-22.41-13.05-1.14-.75-1.75-2-2.7-2.92Z"/><path class="c" d="M.1,82.06C.1,55.98,.17,29.89,0,3.8-.02,.52,.95,.05,3.9,.06c45.72,.1,91.45,.07,137.18,.07,1.12,3.95-2.57,4.25-4.51,5.3-12.73,6.9-25.05,14.5-37.61,21.69-23.83,13.63-47.64,27.27-71.32,41.16-6.74,3.95-13.44,8-20.31,11.72-2.19,1.19-4.24,3.47-7.24,2.06Z"/><path class="u" d="M197.41,215.2c2.88-5.52,7.73-9.75,10.17-15.56,.38-.91,1.28-1.68,1.42-2.6,.85-5.72,4.78-8.75,9.41-11.37,22.24-12.56,44.59-24.94,66.36-38.31,2.81-1.73,4.24-.61,4.27,2.22,.1,11.65,.25,23.3-.12,34.94-.17,5.36-5.81,5.95-9.26,8-18.39,10.95-37.01,21.53-55.54,32.23-2,1.15-4.14,1.98-6.09,3.32-3.23,2.21-6.21,3.88-9.54-.99-3.14-4.6-12.59-4.34-18.3-.15-12.91,9.47-21.2,21.78-22.16,38.17-.35,5.94,.13,12.24,6.08,15.29,6.87,3.52,13.68,1.44,19.52-3.11,7.48-5.83,12.89-13.3,15.9-22.35,1.54-4.65,5.26-7.06,9.13-9.25,22.24-12.57,44.5-25.11,66.32-38.4,3.75-2.28,4.12,.72,4.13,3.44,.02,8.65-.66,17.37,.16,25.95,.94,9.86-1.94,15.53-11.35,20.48-23.6,12.43-46.29,26.59-69.41,39.94-19.43,11.22-38.94,22.29-58.44,33.37-1.05,.6-2.19,.87-1.97,2.4h-5c.04-21.63,.09-43.27,.1-64.9,.02-31.64,.13-63.27-.12-94.9-.04-5.23,1.26-8.41,6.01-11.04,21.91-12.15,43.69-24.55,65.39-37.08,23.25-13.43,46.35-27.1,69.51-40.67,2.96-1.73,4.98-1.14,5,2.45,.1,12.49-.03,24.97-.02,37.46,0,5.65-5.25,6.14-8.44,8.02-19.74,11.62-39.77,22.76-59.63,34.17-1.99,1.14-3.66,2.8-5.94,3.55-1.99,.66-3.53,.26-4.96-1.2-6.88-7-12.83-7.6-20.59-1.65-12.38,9.5-20.26,21.69-21.39,37.62-.27,3.85-.08,7.77,1.96,11.11,3.62,5.91,13.21,7.62,19.35,4,2.63-1.55,4.69-4.16,8-4.51,.79,2.71-1.29,3.88-2.91,5.17-2.46,1.96-5.41,3.17-8.13,4.73-6.51,2.58-11.93,.75-16.64-4.05-.92-1.25-2.3-2.08-3.19-3.36-1.2-2.85-2.74-5.61-2.69-8.84-.02-1.55-.02-3.1,.02-4.65,.01-1.03,.16-2.04,.45-3.03,.49-1.64,1.53-3.11,1.48-4.91,.43-6.04,3.54-10.97,6.65-15.9,4.59-7.27,10.32-13.45,17.69-17.97,6.74-4.13,13.36-4.57,19.68,.96,2.59,2.27,5.09,2.08,8.16,.32,20.48-11.73,40.81-23.73,61.36-35.34,5.27-2.98,6.9-6.07,6.6-11.65-.4-7.63-.02-15.3-.13-22.95-.07-4.75-.91-5.18-4.79-2.93-20.7,11.99-41.35,24.08-62.14,35.91-19.49,11.09-38.63,22.81-58.47,33.29-3.37,1.78-6.41,4.18-9.92,5.74-.95,.56-1.84,1.18-2.6,1.99-1.46,2.99-1.05,6.2-1.05,9.33-.03,46.35-.02,92.7-.02,139.05,0,2.99,.05,5.98-.08,8.95,.26,.9-.81,2.68,1.51,2.22,16.47-10.36,33.65-19.45,50.4-29.29,14.45-8.5,29.06-16.73,43.53-25.21,13.17-7.71,26.42-15.32,39.75-22.75,2.9-1.62,3.95-3.67,3.93-6.79-.06-8.47,.04-16.95-.04-25.42-.05-5.23-.62-5.5-5.33-3.14-1.19,.6-2.43,1.08-3.6,1.72-.84,.47-1.7,.91-2.51,1.44-11.74,7.43-23.98,14.02-35.98,21-7.98,4.64-16.42,8.6-23.4,14.82-.67,.9-1.46,1.73-1.79,2.84-.58,3.49-3.23,5.98-4.42,9.18-.78,1.18-2.05,1.92-2.76,3.16-5.26,7.07-11,13.57-19.89,16.21-2.21,.73-4.46,1.18-6.79,1.04-6.85-1.25-11.7-4.88-13.93-11.65-.35-.94-.73-1.88-1.03-2.84-.29-.98-.43-1.98-.46-3-.04-1.52-.04-3.03,0-4.55,.01-1.01,.16-2,.45-2.96,.49-1.6,1.49-3.04,1.47-4.8,.1-1.69,.02-3.4,.63-5.02,.48-1.1,1.43-1.91,1.89-3.02,4.83-9.27,10.22-18.08,19.43-23.77,1.25-.48,2.39-1.2,3.5-1.9,6.39-4.04,12.62-3.92,18.46,.89,2.91,2.4,5.27,2.26,8.5,.38,21.27-12.38,42.55-24.74,64.01-36.78,2.48-1.39,3.64-3.17,3.64-5.96,0-8.48-.03-16.96,.01-25.44,.02-3.51-1.06-3.95-4.12-2.19-20.48,11.75-40.8,23.78-61.48,35.16-3.66,2.01-6.17,4.73-7.75,8.68-2.29,5.73-5.46,11.03-9.93,15.4-1.36,1.33-2.64,3.17-5.07,2.36Z"/><path class="j" d="M.1,82.06c6.37-1.19,11.16-5.52,16.57-8.54,16.61-9.29,33.01-18.97,49.5-28.47,20.09-11.58,40.19-23.13,60.28-34.69,4.31-2.48,8.6-4.97,12.9-7.45,1.07-.62,2.79-.83,1.73-2.78h7c-1.62,1.23-.51,1.92,.55,2.52,7.18,4.1,14.36,8.22,21.59,12.23,1.24,.69,2.43,1.17,2.32,2.81-.1,1.45-.9,2.45-2.15,3.15-16.42,9.28-32.88,18.49-49.24,27.87-17.94,10.29-35.79,20.73-53.68,31.12-11.02,6.4-21.91,13.03-33.1,19.1-3.3,1.79-3.97,3.89-3.97,7.12,.06,51.1,.06,102.21,.07,153.31,0,1,0,2,0,3,.06,3.73-.78,4.96-4.58,2.52-6.68-4.28-13.63-8.17-20.61-11.96-1.43-.78-3.06-3.04-5.21-.98v-5c8.26,4.82,16.52,9.63,24.75,14.49,.98,.58,1.73,1.76,3.04,.98,1.3-.77,.76-1.96,.61-3.12-.21-1.64-.27-3.31-.27-4.97-.01-49.11,.02-98.22-.06-147.33,0-4.79,.89-7.91,5.8-10.61,22.11-12.18,43.86-25,65.71-37.65,17.88-10.35,35.7-20.82,53.59-31.17,4.71-2.72,9.58-5.17,14.38-7.76,.84-.45,2.07-.6,2.07-1.85,0-1.22-1.14-1.38-2.02-1.84-6.57-3.41-12.99-7.08-19.23-11.07-3.08-1.97-6.31-1.19-9.42,.6-18.48,10.64-37.03,21.15-55.49,31.82-19.58,11.32-39.09,22.79-58.63,34.18-8.26,4.82-16.54,9.61-24.81,14.42v-4Z"/><path class="v" d="M1535.9,267.92c-11.28-.91-22.59-.4-33.88-.28-4.27,.05-6.65-1.56-7.89-5.25-4.36-13-8.56-26.07-12.98-39.05-3.46-10.16-7.2-20.23-10.75-30.37-3.33-9.5-6.68-19-9.81-28.56-1.28-3.92-.51-7.82,.91-11.7,3.8-10.4,7.44-20.85,11.07-31.31,1.03-2.96,2.84-5.65,2.91-8.95,.02-1.04,.76-1.91,1.92-1.95,1.11-.03,1.71,.83,2.28,1.69,2.69,4.09,3.57,8.93,5.31,13.39,6.16,15.84,11.89,31.85,17.69,47.83,5.4,14.9,10.64,29.87,16.03,44.77,4.94,13.67,9.99,27.3,15,40.95,.41,1.11,1.07,1.65,2.2,.79v7.99Z"/><path class="j" d="M.1,88.06c2.38,.52,1.86,2.43,1.86,4.01,.02,49.62,.02,99.24,0,148.86,0,1.57,.53,3.49-1.86,4.01V88.06Z"/><path class="r" d="M1290.22,175.21c0,28.97-.04,57.95,.06,86.92,.01,3.29-.7,4.95-4.38,4.88-8.49-.17-17-.14-25.49-.02-3.7,.05-4.84-1.46-4.81-5.12,.2-28.97,.22-57.94,.31-86.91,0-1.34,.32-2.91-1.37-3.31-1.68-.39-2.67,1.03-3.7,2.12-14.8,15.79-29.6,31.57-44.41,47.36-5.81,6.2-6.09,6.19-11.93-.12-14.7-15.88-29.41-31.75-44.14-47.6-.94-1.01-1.64-2.92-3.51-1.94-1.39,.73-.93,2.32-.93,3.63,.05,28.97,.03,57.94,.21,86.92,.02,3.61-.84,5.14-4.7,5.04-8.33-.21-16.66-.14-24.99-.03-3.66,.05-5.31-1-5.31-5.16,.09-57.94,.01-115.89-.03-173.83,0-1.49-.33-3.19,1.58-3.74,2.29-.66,3.17,1.32,4.36,2.63,26.5,29.21,52.99,58.43,79.49,87.64,4.49,4.95,4.38,4.81,8.93-.22,25.55-28.27,51.15-56.5,76.85-84.63,1.9-2.08,3.27-6.52,6.34-5.45,3.66,1.28,1.43,5.62,1.45,8.52,.17,27.47,.1,54.95,.1,82.42h.03Z"/><path class="q" d="M804.14,224.32c0-12.32,.13-24.64-.07-36.95-.07-4.2,1.08-6.08,5.63-5.91,7.82,.29,15.66,.27,23.48,.02,4.68-.15,6.53,1.31,6.42,6.28-.31,13.81-.03,27.63-.24,41.44-.05,3.56,1.22,4.8,4.6,4.73,13.44-.27,26.98,1.09,40.16-2.98,15.14-4.67,26.92-13.31,33.92-27.84,5.03-10.45,6.68-21.5,5.73-32.97-1.76-21.29-14-40.1-35.78-47.56-9.3-3.18-18.74-4.33-28.4-4.4-16.49-.12-32.98-.14-49.47,.06-4.51,.06-6.28-1.25-6.07-5.98,.35-7.64,.19-15.31,.05-22.96-.07-3.67,1.41-4.96,5.06-4.92,19.82,.22,39.66-.33,59.45,.52,24.68,1.06,47.49,7.99,65.42,26.17,13.1,13.29,20.42,29.42,23.29,47.94,1.99,12.88,1.92,25.67-.62,38.21-5.13,25.36-18.53,45.27-41.76,57.67-15.98,8.53-33.24,12.05-51.28,12.05-17.99,0-35.98-.1-53.96,.11-4.41,.05-5.73-1.37-5.63-5.76,.28-12.31,.1-24.63,.1-36.95h-.02Z"/><path class="r" d="M96.03,221.44c0-25.97,.06-51.93-.08-77.9-.02-3.24,.9-5.07,3.77-6.7,18.42-10.48,36.71-21.17,55.07-31.76,19.93-11.51,39.89-22.97,59.81-34.48,7.46-4.31,14.85-8.72,22.3-13.03,2-1.16,4.26-1.24,6.23-.11,7.76,4.44,15.44,9.04,23.17,13.53,3.11,1.81,3.33,2.82-.2,4.84-37.35,21.4-74.59,43-111.88,64.51-7.74,4.46-15.53,8.82-23.34,13.16-3.32,1.85-4.82,4.16-4.8,8.33,.23,51.76,.21,103.53,.26,155.3,0,2.72-.54,5.18-3.95,3.25-7.61-4.33-14.97-9.12-22.63-13.36-2.91-1.61-3.82-3.44-3.81-6.67,.13-26.3,.07-52.6,.07-78.9Z"/><path class="r" d="M48.04,194.48c0-26.15,.07-52.29-.09-78.44-.02-3.51,1.21-5.74,4.01-7.35,23.14-13.26,46.32-26.45,69.44-39.75,21.96-12.64,43.89-25.34,65.77-38.13,3.54-2.07,6.59-2.34,10.19-.09,6.45,4.04,13.1,7.78,19.73,11.53,1.53,.87,3.01,1.71,3.1,3.55,.1,2.04-1.91,1.9-3.14,2.61-17.95,10.33-35.86,20.71-53.8,31.05-21.82,12.57-43.65,25.12-65.47,37.68-5.45,3.14-10.9,6.28-16.38,9.37-2.47,1.39-3.29,3.46-3.29,6.22,.06,51.96,.08,103.92,.1,155.88,0,1.59,.88,3.5-.87,4.62-1.93,1.23-2.92-.82-4.27-1.6-7.02-4.08-13.89-8.44-21.14-12.06-3.42-1.71-3.91-3.95-3.9-7.14,.05-25.98,.03-51.96,.03-77.94Z"/><path class="q" d="M1387.04,266.96c-5,0-10-.11-15,.04-4.02,.12-5.19-1.4-3.67-5.14,6.5-15.95,12.04-32.25,17.91-48.43,6.43-17.72,13.27-35.29,19.78-52.97,4.46-12.11,8.64-24.32,13.02-36.46,4.15-11.52,8.35-23.02,12.63-34.49,1.31-3.52,3.41-5.48,7.86-5.19,7.8,.51,15.66,.22,23.48,.07,3.92-.07,6.15,.42,4.35,5.28-4.01,10.84-7.68,21.82-11.45,32.75-3.35,9.71-6.62,19.44-9.96,29.15-3.61,10.48-7.29,20.94-10.89,31.43-3.39,9.86-6.73,19.75-10.1,29.62-3.41,10.02-6.79,20.06-10.26,30.07-2.39,6.88-5.12,13.65-7.29,20.6-.95,3.06-2.56,3.82-5.44,3.73-4.99-.15-10-.04-15-.04Z"/><path class="o" d="M1314.15,204.42c0-19.13,.13-38.25-.09-57.38-.06-4.69,1.55-6.11,6.07-5.95,7.98,.29,15.98,.22,23.96,.02,3.99-.1,5.63,1.13,5.61,5.39-.12,38.58-.11,77.17,0,115.75,0,3.49-1.18,4.82-4.58,4.79-8.65-.08-17.31-.15-25.96,.03-3.93,.08-5.13-1.37-5.1-5.29,.18-19.12,.08-38.25,.08-57.38Z"/><path class="n" d="M769.83,220.98c0,13.81-.07,27.63,.05,41.44,.03,3.56-1.57,4.77-4.82,4.73-3.01-.04-5.26-.66-5.06-4.46,.23-4.32,.2-8.65,.26-12.97,.02-1.43,.64-3.23-1.25-3.88-1.47-.5-2.39,.75-3.27,1.78-5.19,6.18-11.27,11.18-18.56,14.76-10.7,5.25-21.94,7.45-33.76,6.08-7.76-.9-15.31-2.55-21.84-7.46-9.06-6.8-13.12-18.51-10.82-29.61,3.22-15.57,14.55-22.58,27.87-27.62,12.3-4.66,25.26-6.77,38.08-9.45,5.58-1.16,11.29-2.68,16.45-5.55,4.12-2.29,6.44-5.32,6.44-10.3,0-15.32-9.68-26.65-24.93-28.58-12.43-1.57-24.63-1.34-35.32,6.53-5.62,4.14-10.03,9.47-11.92,16.17-1.18,4.16-3.17,5.2-6.8,4.08-4.47-1.39-3.5-4.94-2.3-7.8,3.38-8.06,7.99-15.33,15.39-20.4,14.65-10.04,31.15-11.13,47.33-6.66,18.79,5.19,27.86,19.37,28.31,38.72,.31,13.47,.06,26.96,.06,40.45h.4Z"/><path class="w" d="M548.82,176.02c0-28.46,.02-56.92-.02-85.38,0-3.8,.26-7.04,5.36-7.07,4.26-.03,6.39,1.28,6.37,6.03-.14,34.12,0,68.24-.2,102.36-.03,4.76,1.16,6.69,6.13,6.39,5.81-.35,11.65-.16,17.48-.03,3.24,.07,5.53-.89,7.59-3.65,12.73-17.01,25.67-33.86,38.51-50.78,2.34-3.09,8.96-4.98,12.08-3.13,3.12,1.85,.81,3.67-.41,5.27-8.05,10.57-16.16,21.09-24.22,31.65-5.14,6.73-10.07,13.62-15.4,20.2-2.41,2.96-2.15,5.11,.16,7.84,9.89,11.66,19.67,23.41,29.48,35.14,6.07,7.26,12.11,14.56,18.21,21.81,.86,1.02,2.09,1.85,1.51,3.39-.68,1.82-2.37,1.34-3.82,1.57-5.43,.88-8.88-1.66-12.22-5.72-13.38-16.31-27.11-32.35-40.58-48.59-2.23-2.69-4.66-3.89-8.13-3.8-6.99,.18-13.99,.22-20.98,0-4.21-.13-5.44,1.53-5.38,5.62,.21,15.48,0,30.96,.19,46.43,.06,4.3-1.42,5.97-5.74,6.04-4.58,.08-6.07-1.74-6.05-6.24,.14-28.46,.07-56.92,.07-85.38Z"/><path class="t" d="M377.08,267.16c-1.36,0-2.71-.01-4.07-.02-2.64-.62-2.94-2.25-2.07-4.53,2.73-7.11,5.49-14.21,8.23-21.31,3.51-9.09,7.06-18.17,10.52-27.27,4.48-11.75,9.08-23.46,13.6-35.2,5.53-14.33,11.14-28.64,16.65-42.98,3.62-9.42,7.35-18.79,10.98-28.2,2.38-6.16,4.78-12.32,6.99-18.54,.95-2.69,2.11-5.03,5.38-4.98,2.06,.03,4.55-.95,6.01,1.27,1.3,1.97-.21,3.72-.94,5.57-4.48,11.4-8.81,22.87-13.3,34.27-4.49,11.38-9.02,22.74-13.33,34.18-4.5,11.92-9.19,23.77-13.81,35.64-5.39,13.86-10.69,27.75-16.21,41.56-2.7,6.74-5.16,13.62-7.86,20.36-1.47,3.68-1.53,8.83-6.79,10.19Z"/><path class="i" d="M1047.02,218.35c-12.31,0-24.63,.05-36.94-.03-3.38-.02-2.09,1.85-1.39,3.18,2.45,4.65,5.92,8.65,10.52,10.99,10.46,5.32,21.41,5.15,30.22-2.56,5.93-5.19,9.88-4.83,15.78-.99,4.73,3.08,10.28,4.92,15.53,7.17,5.03,2.16,5.48,5.03,2.23,9.42-7.41,10-17.1,17.27-28.44,21.51-10.54,3.94-21.78,5.46-33.25,2.79-10.46-2.44-20.19-6.3-28.61-12.97-10.9-8.64-17.78-19.77-22.2-33.1-3.46-10.44-3.71-21-2.02-31.02,3.07-18.19,11.54-33.79,28.07-44.15,11.77-7.37,24.36-10.97,38.01-10.38,17.01,.74,31.68,7.58,42.26,20.88,12.33,15.49,15.46,33.93,13.91,53.31-.38,4.73-3.08,6.44-7.71,6.37-11.99-.16-23.99-.06-35.98-.06v-.36Z"/><path class="l" d="M377.08,267.16c4.11-2.04,4.36-6.54,5.78-9.99,5.69-13.91,10.72-28.09,16.14-42.12,5.42-14.03,11.07-27.98,16.52-41.99,4.56-11.71,8.97-23.48,13.49-35.21,4.35-11.26,8.76-22.49,13.14-33.74,1.74-4.47,3.53-8.93,5.09-13.46,.59-1.73,3.64-3.99,.34-5.37-2.91-1.21-6.45-1.05-8.14,2.63-1.51,3.3-2.77,6.72-4.07,10.11-5.56,14.52-11.1,29.06-16.64,43.58-5.54,14.51-11.07,29.03-16.65,43.53-4.4,11.42-8.92,22.81-13.33,34.23-4.59,11.87-9.1,23.76-13.67,35.64-.95,2.47-1.83,5-3.04,7.35-1.03,2.01-.41,3.42,.97,4.8-1.38,1.37-2.78,.88-3.94-.19-1.22-1.13-.38-2.27,.15-3.57,4.67-11.56,9.24-23.17,13.79-34.78,3.58-9.15,7.13-18.32,10.63-27.51,3.56-9.36,6.77-18.88,10.66-28.1,2.41-5.72,4.52-11.53,6.76-17.31,3.62-9.36,7.22-18.74,10.98-28.04,2.76-6.81,5.42-13.68,8.09-20.51,2.39-6.1,5-12.18,6.88-18.49,1.45-4.86,8.15-7.78,12.4-5.11,2.52,1.58,1.89,4.11,.91,6.24-5.47,11.95-9.74,24.37-14.46,36.62-3.54,9.16-7.43,18.18-11.04,27.31-3.32,8.4-6.36,16.91-9.71,25.29-3.83,9.58-7.27,19.31-11.27,28.83-4.71,11.2-8.58,22.74-12.88,34.11-3.06,8.09-6.13,16.18-9.4,24.19-.77,1.89-2.57,2.47-4.47,1.04Z"/><path class="h" d="M514.43,267.91c-5.96,1.12-6.49-4.34-7.93-7.98-4.9-12.37-9.52-24.85-14.54-37.18-4.65-11.42-8.53-23.16-12.96-34.67-3.49-9.07-7.41-17.98-10.95-27.03-3.42-8.73-6.55-17.57-9.89-26.33-2.46-6.43-4.91-12.87-7.66-19.17-1.57-3.6-2.16-6.92,.16-10.35,.46-.68,.85-1.44,1.13-2.21,.64-1.71-.2-4.52,2.73-4.58,2.55-.05,2.89,2.59,3.58,4.28,3.69,8.97,7.2,18,10.71,27.04,3.51,9.05,6.95,18.13,10.42,27.2,4.58,11.95,9.12,23.92,13.76,35.85,3.58,9.19,7.37,18.29,10.93,27.49,3.44,8.9,6.65,17.88,10.06,26.79,1.77,4.62,3.84,9.12,5.63,13.73,2.3,5.94,1.44,7.15-5.19,7.13Z"/><path class="k" d="M1310.95,104.94c0-11.04,10.49-21.74,21.17-21.59,10.47,.15,21.5,11.31,21.46,21.71-.04,10.52-10.78,20.9-21.6,20.88-10.92-.03-21.04-10.13-21.04-20.99Z"/><path d="M170.09,219.95c4.56,3.92,9.59,5.97,15.64,3.86,1.7-.37,3.31-.64,2.32,2.04-8.42,5.97-14.23,14.03-18.61,23.23-1.1,.52-1.99,1.21-1.98,2.58-.18,1.75-.36,3.5-.54,5.26-.88,1.24-2.08,2.37-1.48,4.14-.17,.95-.35,1.91-.52,2.86-1.19,1.66-1.15,3.33-.06,5.01l.54,2.86c-.21,.96,.03,1.69,1.07,1.97,1.8,6.43,6.94,9.18,12.6,11.34,2.72,1.59,4.95,.62,6.99-1.35,8.32-2.96,13.86-9.3,19.28-15.8,.8-.91,2.43-1.07,2.44-2.69,.16-3.63,3.39-5.94,4.02-9.37,1.01-.62,1.89-1.33,1.92-2.66-.29-3.63,3.08-3.48,5.01-4.6,15.14-8.83,30.35-17.52,45.54-26.25,3.25-1.87,6.49-3.73,9.74-5.59,.9,.1,1.58-.2,1.98-1.05,1.81-2.55,5.02-2.95,7.38-4.74,1.9-1.43,3.91-.69,3.91,2.26,.03,11.14,.17,22.29-.03,33.42-.09,4.94-5.2,5.26-8.17,7.02-18.32,10.89-36.88,21.37-55.39,31.94-18.67,10.66-37.42,21.19-56.04,31.95-6.79,3.92-13.29,8.34-20.43,11.64-.82-.27-1.54-.7-2.12-1.36-.05-14.64-.14-29.29-.15-43.93-.03-37.29-.04-74.58,0-111.86,0-2.5-.91-5.64,3.08-6.26,.9,.11,1.59-.19,1.97-1.06,5.56-4.43,12.1-7.23,18.15-10.84,13.1-7.82,26.34-15.4,39.57-22.98,11.4-6.53,22.9-12.87,34.29-19.41,9.39-5.39,18.68-10.96,28.03-16.42,4.4-2.57,8.86-5.01,13.25-7.59,2.62-1.54,3.98-1.2,3.98,2.13-.01,11.15,.03,22.3,.04,33.45,0,2.02-.94,3.56-2.63,4.52-18.14,10.32-36.31,20.57-54.44,30.9-4.42,2.52-8.69,5.29-13.06,7.88-2.12,1.26-4.4,1.89-6.39-.17-7.39-7.66-14.64-6.28-21.88-1.27-11.23,7.77-18.9,18.42-22.01,31.98-1.02,1.19-2.19,2.32-1.51,4.13-.16,.96-.32,1.92-.47,2.87-1.16,1.66-1.14,3.34-.03,5.01,.25,2.94,2.95,5.14,2.53,8.29,0,1.78,1.74,1.84,2.68,2.69Z"/><path class="p" d="M188.05,225.85c-.07-1.48-1.1-1.87-2.32-2.04,4.09-2.52,9.07-3.84,11.57-8.51l.1-.1c6.31-3.46,10.38-9.47,12.29-15.61,2.76-8.88,9.66-11.95,16.43-15.85,18.73-10.82,37.46-21.64,56.21-32.42,1.25-.72,2.59-2.01,4.09-1.2,1.59,.86,.9,2.68,.91,4.09,.06,9.15-.03,18.29,.09,27.44,.04,2.76-.72,4.84-3.17,6.25-22.49,12.9-44.96,25.83-67.47,38.69-1.7,.97-3.89,2.22-5.52,.39-7.43-8.33-15.22-6.13-23.21-1.11Z"/><path class="p" d="M186.05,283.75c-1.82,3.12-3.95,4.59-6.99,1.35,2.33-.45,4.66-.9,6.99-1.35Z"/><path class="p" d="M164.87,208.98c-2.83-1.69-2.87-3.36,.04-5.01,.46,1.67,.48,3.35-.04,5.01Z"/><path class="p" d="M164.86,268.93c-2.81-1.71-2.87-3.38,.06-5.01,.46,1.68,.48,3.35-.06,5.01Z"/><path class="p" d="M165.38,201.09c-2.56-2.5-.89-3.45,1.51-4.13,.18,1.63-.4,2.97-1.51,4.13Z"/><path class="p" d="M165.45,261.06c-2.4-2.41-.45-3.27,1.48-4.14,.18,1.62-.38,2.98-1.48,4.14Z"/><path class="p" d="M170.09,219.95c-1.85,.06-3.26-.32-2.68-2.68,1.19,.6,2.26,1.32,2.68,2.68Z"/><path class="p" d="M207.77,265.26c.54,2.12-.61,2.71-2.44,2.69,.24-1.41,1.31-2.08,2.44-2.69Z"/><path class="p" d="M149.98,164.76c-.13,1.34-.14,2.89-1.97,1.06,.66-.35,1.31-.71,1.97-1.06Z"/><path class="p" d="M275.97,215.74c-.13,1.34-.17,2.86-1.97,1.05,.66-.35,1.32-.7,1.97-1.05Z"/><path class="p" d="M167.47,251.66c-.48-1.73,.08-2.66,1.98-2.58-.19,1.22-.78,2.13-1.98,2.58Z"/><path class="p" d="M213.71,253.23c.47,1.68-.12,2.61-1.91,2.66,.06-1.3,.73-2.16,1.91-2.66Z"/><path class="p" d="M166.47,273.76c-.72,.02-1.54,.22-1.91-.65-.31-.74,.36-1,.84-1.32,.76,.44,1.03,1.15,1.07,1.97Z"/><path class="p" d="M145.08,327.88c.97,.04,1.77,.35,2.12,1.35-1.77,1.21-2.21,.35-2.12-1.35Z"/><path class="d" d="M1478.11,113.87c2.27,5.91,4.13,10.57,5.85,15.29,2.47,6.77,4.8,13.59,7.24,20.37,2.57,7.11,5.23,14.19,7.81,21.3,2.4,6.63,4.69,13.31,7.14,19.92,3.55,9.57,7.21,19.09,10.81,28.64,2.67,7.07,5.39,14.12,7.95,21.22,2.69,7.44,5.19,14.94,7.83,22.39,.73,2.05-.11,2.82-2.03,2.82-9.99,.02-19.99,.22-29.98-.09-4.56-.14-4.65-4.82-5.63-7.82-2.65-8.11-5.51-16.12-8.39-24.15-3.6-10.06-6.62-20.33-10.02-30.47-2.36-7.04-4.81-14.04-7.42-20.99-2.49-6.61-4.07-13.54-7.12-19.97-.84-1.77-.41-3.91,.31-5.86,5.05-13.69,10.06-27.39,15.65-42.61Z"/><path class="b" d="M760.37,209.9c.88,19.33-7.12,34.06-23.96,43.23-14.33,7.81-29.35,9.24-44.97,2.48-14.49-6.27-13.77-28.2-3.12-36.08,6.49-4.81,13.89-7.49,21.65-9.57,11.39-3.06,23.19-4.32,34.42-8.04,3.77-1.25,7.84-1.21,11.59-2.88,2.68-1.2,4.48,.16,4.41,3.37-.06,2.5-.01,4.99-.01,7.49Z"/><path class="e" d="M551.84,176.16c0-27.97,0-55.93,0-83.9,0-1.33-.07-2.68,.15-3.98,.3-1.76,1.59-2.46,3.3-2.29,1.72,.18,2.02,1.48,2.05,2.9,.02,1,0,2,0,3,0,33.63-.01,67.25-.02,100.88,0,7.39,1.37,8.79,8.64,8.8,5.66,0,11.33-.06,16.99,.03,3.75,.06,6.63-1.13,8.99-4.26,12.94-17.23,26.03-34.34,39.01-51.53,1.81-2.4,3.71-4.26,7-3.77,.94,.14,2.13-.3,2.67,.79,.56,1.13-.5,1.75-1.09,2.52-8.77,11.42-17.56,22.82-26.27,34.28-4.8,6.31-9.41,12.77-14.21,19.08-2.07,2.71-1.78,4.64,.5,7.33,14.25,16.81,28.25,33.83,42.38,50.75,1.92,2.3,4.1,4.36,6.11,6.59,1.25,1.39,1.11,2.3-.99,2.54-3.39,.38-5.93-.59-8.24-3.38-12.37-14.95-24.92-29.75-37.43-44.58-2.46-2.91-4.98-5.77-7.57-8.56-1.88-2.03-4.17-3.12-7.08-3.08-7.49,.11-14.99-.04-22.49,.07-5.24,.07-6.93,1.77-6.91,6.88,.06,16.47,.14,32.94,.37,49.41,.03,2.19-.53,3.14-2.63,3.19-1.92,.04-3.28-.64-3.3-2.8-.02-1.66,.06-3.33,.06-4.99,0-27.3,0-54.6,0-81.9Z"/><path class="s" d="M1046.43,215.88c-12.32,0-24.65,0-36.97,0-1.47,0-3.15-.45-4.08,1.11-1,1.69,.05,3.07,.9,4.57,8.4,14.81,18.74,17.35,33.51,15.5,4.93-.62,9.52-3.23,12.98-6.93,2.57-2.75,5.01-2.79,8.01-1.34,6.24,3.03,12.52,5.97,18.7,9.11,2.94,1.5,4.17,3.44,1.6,6.7-14.8,18.77-34.04,26.06-57.57,22.82-21.39-2.94-36.94-14.3-46.56-33.26-7.17-14.14-9.14-29.12-5.41-45,4.1-17.46,13.05-30.96,28.33-40.33,12-7.37,25.19-9.1,38.83-7.75,21.24,2.1,35.56,13.69,44.36,32.89,5.51,12.04,6.15,24.63,5.8,37.5-.1,3.54-1.63,4.54-4.93,4.51-12.49-.12-24.98-.05-37.47-.05v-.06Z"/><path class="m" d="M455.53,101.21c3.02,7.82,6.02,15.64,9.06,23.45,4.56,11.71,9.17,23.39,13.7,35.12,4.52,11.72,8.91,23.49,13.45,35.2,4.54,11.71,9.25,23.35,13.8,35.06,3.42,8.79,6.69,17.65,10.04,26.47,.53,1.39,1.17,2.73,1.72,4.11,.73,1.82,3.18,4.15-.09,5.32-2.36,.84-5.52,1.58-7.01-2.36-5.91-15.61-11.94-31.17-18.03-46.72-5.54-14.17-11.28-28.25-16.78-42.43-4.49-11.56-8.7-23.23-13.15-34.81-3.38-8.79-6.6-17.66-10.55-26.19-2.39-5.15,2.79-7.8,2.14-12.1l1.7-.1Z"/><path class="q" d="M1331.78,123.22c-11-.13-18.25-7.52-18.16-18.51,.09-10.99,7.48-18.21,18.59-18.17,10.97,.04,18.23,7.48,18.16,18.59-.07,10.97-7.51,18.22-18.58,18.09Z"/><path class="f" d="M1030.65,192.44c-6.98,0-13.96,.01-20.94-.01-1.58,0-3.49,.68-4.4-1.32-.83-1.81,.62-3.01,1.35-4.48,5.48-11.09,14.6-15.82,26.66-15.43,9.69,.32,19.62,7.95,22.34,17.12,.92,3.1-.52,4.22-3.58,4.18-7.14-.1-14.29-.03-21.43-.03v-.02Z"/></svg>